<svg
  version="1.1"
  id="Layer_1"
  xmlns="http://www.w3.org/2000/svg"
  xmlns:xlink="http://www.w3.org/1999/xlink"
  viewBox="0 0 64 64"
  xml:space="preserve"
  fill="#000000"
  width="200"
  height="100"
>
  <g id="SVGRepo_bgCarrier" stroke-width="0"></g>
  <g
    id="SVGRepo_tracerCarrier"
    stroke-linecap="round"
    stroke-linejoin="round"
  ></g>
  <g id="SVGRepo_iconCarrier">
    {" "}
    <path
      d="M32,2C16.8,2,4,14.8,4,30c0,3.4,0.7,6.8,1.9,9.9c0.1,0.2,0.2,0.3,0.3,0.5l4.5,4.5c0.2,0.2,0.4,0.4,0.7,0.5 c0.7,0.3,1.5,0.5,2.3,0.5h39.6c0.8,0,1.6-0.2,2.3-0.5c0.3-0.1,0.5-0.3,0.7-0.5l4.5-4.5c0.1-0.2,0.2-0.3,0.3-0.5 c1.2-3.1,1.9-6.5,1.9-9.9C60,14.8,47.2,2,32,2z"
      fill="#F76D57"
    ></path>{" "}
    <path
      d="M62,41.1c-0.1,0-0.2,0-0.3-0.1c-0.5-1.1-1.1-2.1-1.9-3l-3.8-3.8c-0.7-0.7-1.5-1.1-2.5-1.1h-39.6 c-1,0-1.8,0.4-2.5,1.1l-3.8,3.8c-0.8,0.9-1.4,1.9-1.9,3c-0.1,0.1-0.2,0.1-0.3,0.1c-0.8,0-1.5,0.7-1.5,1.5 c0,0.8,0.7,1.5,1.5,1.5c0.5,0,1-0.2,1.4-0.5c0.5-1.1,1.1-2.1,1.8-3l3.8-3.8c0.7-0.7,1.5-1.1,2.5-1.1h39.6 c1,0,1.8,0.4,2.5,1.1l3.8,3.8c0.7,0.8,1.3,1.7,1.8,3c0.4,0.3,0.9,0.5,1.4,0.5c0.8,0,1.5-0.7,1.5-1.5 C63.5,41.8,63.3,41.1,62,41.1z"
      fill="#F76D57"
    ></path>{" "}
  </g>
</svg>
